<svg width="467" height="201" viewBox="0 0 467 201" fill="none" xmlns="http://www.w3.org/2000/svg">
<path d="M107.824 142.024C100.144 142.024 93.9573 139.763 89.264 135.24C84.656 130.632 82.352 124.488 82.352 116.808V75.336C82.352 67.7413 84.656 61.6827 89.264 57.16C93.9573 52.6373 100.144 50.376 107.824 50.376C115.589 50.376 121.776 52.6373 126.384 57.16C131.077 61.6827 133.424 67.7413 133.424 75.336V76.744C133.424 77.1707 133.253 77.5547 132.912 77.896C132.656 78.152 132.315 78.28 131.888 78.28L116.912 78.92C115.888 78.92 115.376 78.4507 115.376 77.512V74.184C115.376 71.7093 114.693 69.704 113.328 68.168C111.963 66.632 110.128 65.864 107.824 65.864C105.605 65.864 103.813 66.632 102.448 68.168C101.083 69.704 100.4 71.7093 100.4 74.184V118.344C100.4 120.819 101.083 122.824 102.448 124.36C103.813 125.811 105.605 126.536 107.824 126.536C110.128 126.536 111.963 125.811 113.328 124.36C114.693 122.824 115.376 120.819 115.376 118.344V114.888C115.376 114.461 115.504 114.12 115.76 113.864C116.101 113.523 116.485 113.352 116.912 113.352L131.888 113.992C132.315 113.992 132.656 114.163 132.912 114.504C133.253 114.76 133.424 115.101 133.424 115.528V116.808C133.424 124.488 131.077 130.632 126.384 135.24C121.691 139.763 115.504 142.024 107.824 142.024ZM167.583 142.024C159.732 142.024 153.46 139.72 148.767 135.112C144.074 130.504 141.727 124.36 141.727 116.68V75.72C141.727 68.04 144.074 61.896 148.767 57.288C153.46 52.68 159.732 50.376 167.583 50.376C175.434 50.376 181.706 52.68 186.399 57.288C191.178 61.896 193.567 68.04 193.567 75.72V116.68C193.567 124.36 191.178 130.504 186.399 135.112C181.706 139.72 175.434 142.024 167.583 142.024ZM167.583 126.536C169.972 126.536 171.892 125.725 173.343 124.104C174.794 122.397 175.519 120.179 175.519 117.448V74.952C175.519 72.2213 174.794 70.0453 173.343 68.424C171.892 66.7173 169.972 65.864 167.583 65.864C165.194 65.864 163.274 66.7173 161.823 68.424C160.458 70.0453 159.775 72.2213 159.775 74.952V117.448C159.775 120.179 160.458 122.397 161.823 124.104C163.274 125.725 165.194 126.536 167.583 126.536ZM205.043 141C204.616 141 204.232 140.872 203.891 140.616C203.635 140.275 203.507 139.891 203.507 139.464V52.936C203.507 52.5093 203.635 52.168 203.891 51.912C204.232 51.5707 204.616 51.4 205.043 51.4H220.019C220.446 51.4 220.787 51.5707 221.043 51.912C221.384 52.168 221.555 52.5093 221.555 52.936V124.872C221.555 125.299 221.768 125.512 222.195 125.512H249.075C249.502 125.512 249.843 125.683 250.099 126.024C250.44 126.28 250.611 126.621 250.611 127.048V139.464C250.611 139.891 250.44 140.275 250.099 140.616C249.843 140.872 249.502 141 249.075 141H205.043ZM259.543 141C259.116 141 258.732 140.872 258.391 140.616C258.135 140.275 258.007 139.891 258.007 139.464V52.936C258.007 52.5093 258.135 52.168 258.391 51.912C258.732 51.5707 259.116 51.4 259.543 51.4H282.711C290.476 51.4 296.706 53.6613 301.399 58.184C306.092 62.7067 308.439 68.7227 308.439 76.232V116.168C308.439 123.677 306.092 129.693 301.399 134.216C296.706 138.739 290.476 141 282.711 141H259.543ZM276.055 124.872C276.055 125.299 276.268 125.512 276.695 125.512L282.455 125.384C284.759 125.299 286.636 124.317 288.087 122.44C289.538 120.563 290.306 118.088 290.391 115.016V77.384C290.391 74.1413 289.666 71.5813 288.215 69.704C286.764 67.8267 284.802 66.888 282.327 66.888H276.695C276.268 66.888 276.055 67.1013 276.055 67.528V124.872Z" fill="url(#paint0_linear_2_8)"/>
<rect opacity="0.9" x="248.5" y="54.5" width="131" height="125" rx="35.5" fill="url(#paint1_linear_2_8)" stroke="url(#paint2_linear_2_8)"/>
<path d="M320.44 167.512C316.685 167.512 313.656 166.424 311.352 164.248C309.048 162.029 307.896 159.107 307.896 155.48V151.064C307.896 150.851 307.96 150.68 308.088 150.552C308.259 150.381 308.451 150.296 308.664 150.296H316.152C316.365 150.296 316.536 150.381 316.664 150.552C316.835 150.68 316.92 150.851 316.92 151.064V155.608C316.92 156.845 317.24 157.848 317.88 158.616C318.52 159.384 319.373 159.768 320.44 159.768C321.549 159.768 322.424 159.384 323.064 158.616C323.747 157.848 324.088 156.845 324.088 155.608V122.968C324.088 122.755 324.152 122.584 324.28 122.456C324.451 122.285 324.643 122.2 324.856 122.2H332.344C332.557 122.2 332.728 122.285 332.856 122.456C333.027 122.584 333.112 122.755 333.112 122.968V155.48C333.112 159.107 331.939 162.029 329.592 164.248C327.288 166.424 324.237 167.512 320.44 167.512ZM350.274 167.512C347.799 167.512 345.623 167.021 343.746 166.04C341.868 165.059 340.418 163.693 339.394 161.944C338.37 160.152 337.858 158.104 337.858 155.8V153.944C337.858 153.731 337.922 153.56 338.049 153.432C338.22 153.261 338.412 153.176 338.626 153.176H345.986C346.199 153.176 346.37 153.261 346.498 153.432C346.668 153.56 346.754 153.731 346.754 153.944V155.352C346.754 156.675 347.095 157.741 347.778 158.552C348.46 159.363 349.314 159.768 350.338 159.768C351.362 159.768 352.215 159.384 352.898 158.616C353.58 157.848 353.922 156.845 353.922 155.608C353.922 154.328 353.495 153.24 352.642 152.344C351.788 151.405 350.124 150.04 347.65 148.248C345.516 146.712 343.788 145.347 342.466 144.152C341.143 142.957 340.012 141.485 339.074 139.736C338.135 137.987 337.666 135.96 337.666 133.656C337.666 130.029 338.796 127.128 341.058 124.952C343.319 122.776 346.306 121.688 350.018 121.688C353.772 121.688 356.78 122.819 359.042 125.08C361.346 127.341 362.498 130.307 362.498 133.976V135.512C362.498 135.725 362.412 135.917 362.242 136.088C362.114 136.216 361.943 136.28 361.73 136.28H354.37C354.156 136.28 353.964 136.216 353.794 136.088C353.666 135.917 353.602 135.725 353.602 135.512V133.784C353.602 132.461 353.26 131.416 352.578 130.648C351.938 129.837 351.084 129.432 350.018 129.432C348.994 129.432 348.162 129.816 347.522 130.584C346.882 131.309 346.562 132.333 346.562 133.656C346.562 134.936 346.967 136.067 347.778 137.048C348.588 138.029 350.188 139.395 352.578 141.144C355.223 143.107 357.207 144.707 358.53 145.944C359.895 147.139 360.94 148.483 361.666 149.976C362.434 151.427 362.818 153.176 362.818 155.224C362.818 158.979 361.666 161.965 359.362 164.184C357.058 166.403 354.028 167.512 350.274 167.512Z" fill="black"/>
<defs>
<linearGradient id="paint0_linear_2_8" x1="229.573" y1="33" x2="280.948" y2="131.973" gradientUnits="userSpaceOnUse">
<stop stop-color="#065AD7"/>
<stop offset="1" stop-color="#06D7CA" stop-opacity="0"/>
</linearGradient>
<linearGradient id="paint1_linear_2_8" x1="374" y1="180" x2="275.5" y2="90" gradientUnits="userSpaceOnUse">
<stop offset="0.00697976" stop-color="#F9FE03"/>
<stop offset="1" stop-color="#F9FE03" stop-opacity="0"/>
</linearGradient>
<linearGradient id="paint2_linear_2_8" x1="388" y1="180" x2="270.5" y2="108" gradientUnits="userSpaceOnUse">
<stop/>
<stop offset="1" stop-opacity="0"/>
</linearGradient>
</defs>
</svg>
